<?xml version="1.0" encoding="UTF-8"?>
<svg id="objects" xmlns="http://www.w3.org/2000/svg" width="158.3" height="116.4" version="1.1" viewBox="0 0 158.3 116.4">
  <defs>
    <style>
      .cls-1 {
        fill: #000;
      }

      .cls-1, .cls-2 {
        stroke-width: 0px;
      }

      .cls-2 {
        fill: #fec502;
      }
    </style>
  </defs>
  <path class="cls-1" d="M6.2,4.6c3.4-.2,6.5-.4,9.6-.5,1.4,0,1.8-1,2.5-1.8.8-.9,1.9-1.7,3.3-1.3,1.3.4,1.5,1.6,1.5,2.7-.2,3,1.4,3.4,3.9,3.4,34.8-.4,69.6-.4,104.3,0,2.7,0,3.9-.7,3.8-3.5,0-2.5,1.9-4,3.5-2.1,2.7,3.2,5.9,2.3,9.1,2.7,1.3.2,2.7.3,3.7.5,1.1-.7.8-1.6.9-2.3.2-1.6,1.1-2.6,2.7-2.5,1.7.1,2.7,1.2,2.7,3,0,3.1,0,6.2,0,9.3,0,30.4,0,60.8,0,91.3,0,2.5.4,5,.5,7.4.1,2.2.1,4.6-2.5,5.2-3,.7-2.7-2.2-3.5-4.1-3.6-.5-7.3-.2-11-.2-1,1.5-.6,4.1-3.4,3.7-4-.5-2.9-4.1-4-6.6H24.4c-.3,1.5-.6,2.9-1,4.3-.4,1.6-1.6,2.1-3.1,2.2-1.5.2-2.5-.5-2.6-2-.1-1.5-1-1.8-2.3-1.8-3.1,0-6.2,0-9.3,0-.3,1-.5,1.7-.7,2.4-.3,1.2-1,2.1-2.3,2.1-1.4,0-2.4-.9-2.7-2.1-.3-1.2-.4-2.5-.3-3.7C1.2,77.3.2,44,.5,10.7c0-2.2,0-4.5,0-6.7C.3,2.1.6.3,2.9,0c2.4-.3,2.9,1.3,3,3.3,0,.3.2.7.3,1.3Z"/>
  <path class="cls-2" d="M24.1,17.7v80.8c36.9-.6,73.5-.3,110.2-.1V17.7c-36.9.5-73.4.5-110.2,0Z"/>
  <path class="cls-2" d="M79.2,14.1c0,0,0-.1,0-.2,15.4,0,30.9,0,46.3,0,2.4,0,4.7.1,7.1.2,1.1,0,2-.2,1.9-1.6,0-1.1-.8-1.4-1.8-1.4-.9,0-1.7,0-2.6,0-24.3.6-48.6.5-72.9.3-10.2,0-20.4-.3-30.6-.4-.9,0-2.1-.4-2.6.7-.2.5-.2,1.4,0,1.7.8.9,2.1.5,3.2.5,17.3,0,34.6,0,51.9,0Z"/>
  <path class="cls-2" d="M23.3,103.9h111.7c-3.2-2.2-108.9-2.1-111.7,0Z"/>
  <path class="cls-2" d="M152.2,45.5c-3.9-.2-7.3-.4-10.9.1v13h10.9v-13.1Z"/>
  <path class="cls-2" d="M6,58.6h11.2c-.2-4.5.3-8.8-.3-13.1-3.8,0-7.2-.4-10.8.2v12.9Z"/>
  <path class="cls-2" d="M6.1,78.5h11.3c0-4,.2-7.6-.5-11.3H6.1c-.4,3.9-.4,7.5,0,11.3Z"/>
  <path class="cls-2" d="M141.1,67.3c0,4-.6,7.6,0,11.3h11.1c.4-3.9.4-7.5,0-11.3h-11.1Z"/>
  <path class="cls-2" d="M152.2,27.7c-3.9-.1-7.3-.4-10.8,0v10.9c3.7.1,7.2.4,10.8-.2.4-3.6.3-7,0-10.8Z"/>
  <path class="cls-2" d="M6.2,27.7v10.9c3.7.2,7.1.3,10.8-.1.3-3.7.5-7.2,0-10.8H6.2Z"/>
  <path class="cls-2" d="M17.1,86.2c-3.7,0-7.3-.7-11.2,0,0,3.3-.4,6.5.3,9.7h11.1c.2-3.3.5-6.3-.2-9.7Z"/>
  <path class="cls-2" d="M152.3,86.2h-11.2c-.4,3.4-.5,6.4,0,9.6h11.1v-9.6Z"/>
  <path class="cls-2" d="M141.3,20h11c0-3.3.5-6.2-.2-9h-11c-.2,3.1-.2,5.9.2,9Z"/>
  <path class="cls-2" d="M6,19.9c10.9,1.5,12.2.5,11.2-8.4,0-.1-.1-.2-.4-.5H6v8.9Z"/>
  <path class="cls-2" d="M17,103.8H6.1c-.3,1.5-.6,2.7.4,4,2.5,0,5.1-.1,7.6,0,3.3.2,3.8-1.3,2.9-4Z"/>
  <path class="cls-2" d="M152,103.7h-11c.2,1.7-1.2,3.9,1.7,4,3.1.1,6.3.5,9.4-.2.4-1.3.4-2.4-.1-3.9Z"/>
  <path class="cls-1" d="M67.8,68.8c.7-6.7,1.3-12.6,1.9-18.6.2-2.4.6-4.7,0-7.1-.3-1.1,0-2,.9-2.6.9-.6,1.7-.3,2.4.3,6.2,5.1,13.1,9.1,19.8,13.4,2.4,1.6,2.4,3.8.2,5.6-6.6,5.1-13.5,9.8-20.8,13.9-2.3,1.3-4.1,0-4.4-2.7,0-1,0-2,0-2.3Z"/>
</svg>